<?xml version="1.0" standalone="no"?>
<!DOCTYPE svg PUBLIC "-//W3C//DTD SVG 20010904//EN"
 "http://www.w3.org/TR/2001/REC-SVG-20010904/DTD/svg10.dtd">
<svg version="1.0" xmlns="http://www.w3.org/2000/svg"
 width="300.000000pt" height="225.000000pt" viewBox="0 0 300.000000 225.000000"
 preserveAspectRatio="xMidYMid meet">
<metadata>
Created by potrace 1.10, written by Peter Selinger 2001-2011
</metadata>
<g transform="translate(0.000000,225.000000) scale(0.100000,-0.100000)"
fill="#000000" stroke="none">
<path d="M1625 1815 c-81 -17 -176 -58 -245 -105 -96 -65 -249 -244 -227 -266
10 -10 25 5 62 60 77 116 223 224 360 266 240 73 495 8 674 -171 74 -74 123
-149 156 -242 91 -249 29 -523 -160 -710 -114 -113 -264 -181 -428 -193 -228
-18 -475 102 -599 292 -37 56 -68 81 -68 56 0 -24 85 -135 148 -193 295 -273
761 -242 1016 67 160 194 205 447 121 687 -36 103 -81 173 -172 264 -68 68
-99 90 -175 127 -148 71 -315 94 -463 61z"/>
<path d="M1769 1374 c-17 -21 0 -48 34 -52 18 -2 27 2 32 18 13 41 -38 68 -66
34z m56 -19 c0 -22 -31 -33 -47 -17 -17 17 -1 44 24 40 15 -2 23 -10 23 -23z"/>
<path d="M968 1351 c56 -5 67 -10 93 -39 17 -19 28 -39 26 -45 -7 -23 -38 -18
-59 8 -30 39 -62 48 -104 30 -86 -36 -86 -223 0 -264 40 -19 86 -4 111 36 12
20 28 32 42 33 20 0 21 -3 12 -32 -11 -41 -27 -56 -75 -74 l-39 -15 35 6 c42
7 78 39 89 79 10 39 6 46 -27 46 -20 0 -31 -8 -42 -32 -30 -64 -113 -58 -145
9 -26 54 -17 146 18 180 38 38 83 36 118 -7 22 -26 32 -31 53 -26 30 7 32 18
10 56 -25 42 -64 60 -126 58 l-53 -1 63 -6z"/>
<path d="M1260 1330 c0 -30 1 -30 55 -30 l54 0 3 -152 3 -153 30 0 30 0 3 153
3 152 54 0 c54 0 55 0 55 30 l0 30 -145 0 -145 0 0 -30z m280 0 c0 -18 -7 -20
-55 -20 l-55 0 0 -155 0 -155 -25 0 -25 0 0 155 0 155 -55 0 c-48 0 -55 2 -55
20 0 19 7 20 135 20 128 0 135 -1 135 -20z"/>
<path d="M858 1323 c-29 -32 -48 -65 -48 -85 0 -7 9 5 19 28 10 22 31 50 46
62 15 12 23 22 18 22 -5 0 -21 -12 -35 -27z"/>
<path d="M1583 1263 c19 -3 27 -10 27 -25 l0 -21 23 20 c12 11 29 23 37 26 12
4 12 6 -2 6 -9 1 -24 -6 -32 -15 -15 -14 -16 -14 -16 0 0 12 -9 16 -32 15 -31
-2 -31 -2 -5 -6z"/>
<path d="M1708 1245 c4 -22 1 -25 -24 -25 -58 0 -74 -32 -74 -139 0 -79 0 -81
-25 -81 l-24 0 -4 120 -3 120 1 -122 0 -123 33 -3 32 -3 0 88 c0 107 13 133
66 133 31 0 34 2 34 30 0 17 -4 30 -9 30 -4 0 -6 -11 -3 -25z"/>
<path d="M1770 1130 l0 -140 30 0 30 0 0 140 0 140 -30 0 -30 0 0 -140z m50 0
c0 -123 -1 -130 -20 -130 -19 0 -20 7 -20 130 0 123 1 130 20 130 19 0 20 -7
20 -130z"/>
<path d="M1940 1065 l0 -205 30 0 30 0 0 77 c0 60 3 74 12 65 7 -7 19 -12 28
-12 8 0 2 7 -14 15 -15 8 -30 15 -32 15 -2 0 -4 -34 -4 -75 0 -68 -2 -75 -20
-75 -19 0 -20 7 -20 196 0 191 1 196 20 191 11 -3 20 -1 20 4 0 5 -11 9 -25 9
l-25 0 0 -205z"/>
<path d="M2128 1250 c85 -52 80 -199 -8 -242 -22 -12 -28 -18 -16 -18 10 0 33
15 51 33 58 58 59 149 3 212 -16 19 -37 35 -47 35 -9 0 -3 -8 17 -20z"/>
<path d="M2015 1205 c-20 -19 -25 -34 -25 -72 0 -47 20 -93 41 -93 5 0 0 9
-11 20 -15 15 -20 33 -20 70 0 37 5 55 20 70 35 35 85 24 106 -24 8 -19 13
-24 14 -13 0 26 -45 67 -75 67 -14 0 -37 -11 -50 -25z"/>
<path d="M801 1185 c0 -22 4 -58 10 -80 14 -49 77 -115 110 -114 22 1 22 1 -5
9 -60 18 -93 69 -105 163 -7 50 -9 55 -10 22z"/>
<path d="M2131 1103 c-1 -23 -44 -63 -69 -63 -8 0 -12 -3 -9 -6 4 -4 19 -1 35
5 32 13 57 51 49 73 -3 7 -6 4 -6 -9z"/>
</g>
</svg>
