<svg version="1.1" id="Layer_1" xmlns="http://www.w3.org/2000/svg" xmlns:xlink="http://www.w3.org/1999/xlink" x="0px" y="0px"
	 width="100%" viewBox="0 0 1280 960" enable-background="new 0 0 1280 960" xml:space="preserve">
<path fill="#000000" opacity="1.000000" stroke="none" 
	d="
M868.000000,961.000000 
	C580.365295,961.000000 293.230652,960.991150 6.096004,961.090942 
	C2.121972,961.092346 0.867212,960.588257 0.869250,956.097046 
	C1.013008,639.299072 1.010713,322.501007 0.883458,5.703020 
	C0.881790,1.549966 1.839348,0.895091 5.795996,0.896125 
	C429.248779,1.006838 852.701599,1.006204 1276.154419,0.903255 
	C1280.007812,0.902318 1281.124512,1.394283 1281.122681,5.653427 
	C1280.988525,322.618073 1280.991333,639.582764 1281.100830,956.547363 
	C1281.102173,960.406799 1280.120972,961.092468 1276.453491,961.089600 
	C1140.469116,960.983276 1004.484558,961.000000 868.000000,961.000000 
z"/>
<path fill="#DBA099" opacity="1.000000" stroke="none" 
	d="
M710.652466,765.724854 
	C737.163269,770.264893 763.331421,770.737366 789.617126,767.801575 
	C822.563477,764.121826 853.862793,754.955566 883.687500,740.501038 
	C921.658020,722.098572 953.769470,696.370056 980.583130,663.879944 
	C1009.412537,628.947327 1029.046997,589.395630 1039.106323,545.308533 
	C1047.312012,509.345978 1048.863281,473.056366 1042.961426,436.420471 
	C1037.325317,401.434814 1026.096680,368.523376 1008.565491,337.820831 
	C992.147278,309.067505 971.369873,283.759430 946.280701,262.107056 
	C913.530396,233.843048 876.316406,213.814468 834.619751,202.172501 
	C796.996765,191.667938 758.759644,189.570221 720.129211,194.295990 
	C674.168152,199.918533 632.285706,216.414627 594.096069,242.499512 
	C567.043640,260.977234 544.051758,283.609344 524.438049,309.796204 
	C517.686646,318.810272 511.658783,328.293549 506.217224,338.089905 
	C503.962250,342.149567 501.522522,343.517151 497.305237,343.038513 
	C495.512756,342.835083 493.677979,343.004517 491.106873,343.004517 
	C495.456970,334.101959 500.290558,326.254578 505.246765,318.457764 
	C521.503174,292.884125 541.330078,270.260681 564.426392,250.879745 
	C590.071289,229.360214 618.719849,212.422394 650.211426,200.549896 
	C675.993530,190.829926 702.565186,184.740112 729.999634,182.260132 
	C776.301147,178.074615 821.237000,184.168976 864.692444,200.535797 
	C895.776367,212.243134 923.953003,229.052628 949.462891,250.375626 
	C973.348755,270.341034 993.715210,293.406189 1010.452698,319.596680 
	C1030.767212,351.384369 1044.278564,385.944794 1051.662231,422.948517 
	C1056.444702,446.915588 1057.787842,471.104736 1056.687988,495.438782 
	C1055.276367,526.667969 1049.106323,556.928711 1038.102783,586.261658 
	C1027.659912,614.100342 1013.470398,639.875854 995.343933,663.291748 
	C965.523438,701.814087 928.536133,731.724915 884.299316,752.417297 
	C837.541077,774.289185 788.286926,782.729248 736.895996,779.689819 
	C712.573608,778.251343 688.937561,773.395203 665.742371,766.089905 
	C626.796875,753.824158 592.120483,734.015015 561.263977,707.357544 
	C533.879578,683.699524 511.468933,656.035461 494.171021,624.259033 
	C490.935150,618.314758 491.153351,618.354919 497.688385,618.111511 
	C501.483002,617.970154 503.748871,618.803467 505.848236,622.604004 
	C520.662170,649.422974 539.814636,672.901245 562.356750,693.585510 
	C589.581299,718.566467 620.367065,737.740417 655.083801,750.712769 
	C673.045959,757.424622 691.313965,762.621765 710.652466,765.724854 
z"/>
<path fill="#FAF9FA" opacity="1.000000" stroke="none" 
	d="
M893.455688,418.524109 
	C918.285461,423.607910 935.740173,444.856415 936.885986,471.146606 
	C937.447998,484.039490 936.262634,496.510925 931.010376,508.716522 
	C924.318726,524.267456 905.626160,538.258606 888.557495,538.901733 
	C872.286621,539.514893 865.218384,536.914795 853.802307,526.070984 
	C852.166992,527.551208 852.997742,529.484985 852.991394,531.148071 
	C852.921448,549.479431 852.711121,567.816223 853.095886,586.139832 
	C853.209290,591.538452 851.530212,592.910828 846.536377,592.396118 
	C842.413208,591.971130 838.191650,592.034668 834.053101,592.369080 
	C830.599854,592.648071 829.997253,591.321472 830.010071,588.196899 
	C830.121216,561.199829 830.074097,534.202148 830.071838,507.204620 
	C830.069580,480.040436 830.135559,452.875854 829.978088,425.712555 
	C829.956604,422.016632 830.873413,420.451569 834.665527,421.096497 
	C835.799194,421.289307 836.993958,421.104034 838.160034,421.127777 
	C841.650146,421.198853 846.068420,420.025482 848.371887,421.720093 
	C850.733276,423.457275 850.040466,428.171844 850.366028,431.639374 
	C850.473511,432.784180 850.486145,434.116821 851.774231,434.592773 
	C852.717407,434.941284 853.187744,433.946442 853.645996,433.327667 
	C863.579590,419.914337 877.343384,416.645294 893.455688,418.524109 
z"/>
<path fill="#F9F8F9" opacity="1.000000" stroke="none" 
	d="
M358.355194,407.284119 
	C376.877106,380.108276 411.831757,375.552155 437.996185,386.069244 
	C454.440643,392.679291 464.055939,405.823578 469.497192,422.320679 
	C470.477020,425.291351 469.214172,426.689453 466.459198,427.201294 
	C460.911774,428.231873 455.317108,429.048126 449.821136,430.300537 
	C446.665710,431.019623 445.414246,429.885864 444.296722,427.082947 
	C440.204407,416.819031 433.694824,408.472229 423.132263,404.406860 
	C404.971069,397.416931 387.008942,405.040070 377.132935,423.431519 
	C371.885437,433.203583 370.046356,443.785492 369.755768,454.694122 
	C369.302612,471.706848 370.789734,488.376251 380.820282,502.934021 
	C389.385437,515.364990 401.883392,519.227722 416.246490,517.600769 
	C427.960419,516.273865 437.406342,511.029755 442.843567,499.928772 
	C444.266083,497.024475 445.112244,493.895538 445.355713,490.834351 
	C445.679474,486.764709 447.199524,485.604828 451.173767,485.895966 
	C456.476837,486.284454 461.833282,486.114899 467.159454,485.948853 
	C470.020203,485.859619 470.693909,486.677490 470.514008,489.653351 
	C469.101776,513.016541 456.119629,529.731018 433.382965,535.821777 
	C412.537781,541.405945 392.157990,541.140076 373.695587,527.904968 
	C361.020691,518.818726 352.961945,506.186768 349.038269,491.498138 
	C343.101746,469.274323 342.930847,446.784180 349.871674,424.560516 
	C351.768951,418.485565 354.784790,412.942474 358.355194,407.284119 
z"/>
<path fill="#F9F8F9" opacity="1.000000" stroke="none" 
	d="
M589.328125,512.999756 
	C589.326294,477.847260 589.258362,443.194489 589.414368,408.542725 
	C589.431946,404.628723 588.450134,403.541992 584.497314,403.623688 
	C571.341614,403.895386 558.175720,403.645050 545.016602,403.813049 
	C541.747620,403.854767 540.186829,403.382874 540.615173,399.551544 
	C541.055237,395.615387 541.003174,391.558014 540.591980,387.613617 
	C540.258728,384.416443 541.138489,383.638916 544.278687,383.658539 
	C565.767944,383.792908 587.258423,383.704132 608.748413,383.755524 
	C624.707825,383.793701 640.667847,384.056122 656.625549,383.937103 
	C660.233521,383.910217 661.226807,384.988068 660.962708,388.424805 
	C660.669922,392.234100 660.707642,396.095245 660.952881,399.911194 
	C661.151428,403.000641 660.119019,403.858215 657.026489,403.817810 
	C643.534302,403.641571 630.036255,403.867096 616.545593,403.638733 
	C612.918274,403.577362 611.864746,404.323761 611.889038,408.198181 
	C612.131226,446.815796 612.140137,485.434937 612.174255,524.053650 
	C612.177612,527.872192 613.285217,532.731812 611.395874,535.227051 
	C609.367310,537.906250 604.309753,535.841125 600.585327,535.865662 
	C589.327759,535.939819 589.327332,535.869690 589.328064,524.495483 
	C589.328308,520.830261 589.328125,517.164978 589.328125,512.999756 
z"/>
<path fill="#FBFBFB" opacity="1.000000" stroke="none" 
	d="
M695.399902,431.385498 
	C704.141541,419.692352 715.852539,417.560089 729.043335,419.610046 
	C731.335144,419.966248 731.859253,421.084503 732.059692,423.266724 
	C732.594971,429.095673 731.394226,434.837280 731.544495,440.630981 
	C731.600708,442.797668 730.822998,443.643921 728.499084,442.898468 
	C726.614929,442.294067 724.582153,442.154816 722.616760,441.801239 
	C709.483887,439.438751 698.343384,445.754395 693.613159,458.190552 
	C691.472595,463.818207 690.213501,469.581177 690.018005,475.632538 
	C689.658142,486.772736 690.037170,497.912415 689.914368,509.036133 
	C689.825195,517.115234 689.644287,525.222656 689.551880,533.316284 
	C689.524292,535.729736 688.337646,535.955383 686.419617,535.927673 
	C681.089905,535.850586 675.743774,535.664307 670.432678,535.988342 
	C666.868103,536.205811 666.434509,534.698120 666.442505,531.671753 
	C666.531433,498.021118 666.498535,464.370148 666.498840,430.719299 
	C666.498962,420.831665 666.499634,420.763947 676.175354,420.788239 
	C680.473083,420.799042 685.979675,419.616577 688.717224,421.782349 
	C691.305176,423.829773 689.296631,429.614655 689.499268,433.749481 
	C689.571411,435.221375 689.510803,436.699738 689.510803,438.747467 
	C692.880737,437.011475 693.168579,433.624146 695.399902,431.385498 
z"/>
<path fill="#F5F4F4" opacity="1.000000" stroke="none" 
	d="
M780.663086,530.768311 
	C781.327759,534.900696 780.003967,536.270508 776.136963,535.999512 
	C771.161499,535.650757 766.139099,535.796448 761.144714,535.963562 
	C758.442810,536.053894 757.383179,535.363342 757.391357,532.392639 
	C757.490906,496.226746 757.491821,460.060364 757.398865,423.894440 
	C757.391663,421.095917 758.371765,420.528870 760.874939,420.643860 
	C766.187622,420.887848 771.523926,421.147949 776.826599,420.896454 
	C780.465332,420.723938 780.734436,422.360046 780.717163,425.297058 
	C780.607544,443.962860 780.655945,462.629639 780.656677,481.296082 
	C780.657288,497.628967 780.663696,513.961853 780.663086,530.768311 
z"/>
<path fill="#F5F4F4" opacity="1.000000" stroke="none" 
	d="
M758.013916,373.006592 
	C763.842041,367.830017 770.359619,368.246826 776.515930,370.529724 
	C781.095093,372.227814 783.309998,376.572662 783.655945,381.630432 
	C784.122009,388.442688 781.024963,393.730438 775.161804,395.908417 
	C768.339233,398.442780 760.097778,396.386536 756.651794,391.290222 
	C753.068420,385.990601 753.539917,378.255463 758.013916,373.006592 
z"/>
<path fill="#020202" opacity="1.000000" stroke="none" 
	d="
M853.103027,478.014496 
	C853.172363,473.191345 853.051941,468.850403 853.381653,464.543915 
	C854.314758,452.358276 860.922424,444.013885 872.197083,440.179993 
	C883.114685,436.467499 892.954529,438.791290 902.125610,446.662537 
	C916.866333,459.314178 919.068970,497.718018 899.349670,511.993988 
	C890.019653,518.748596 879.993896,520.031555 869.701965,515.720642 
	C859.056458,511.261597 853.165344,502.889069 853.152100,490.954498 
	C853.147461,486.807129 853.130249,482.659790 853.103027,478.014496 
z"/>
</svg>